<svg width="24" height="24" viewBox="0 0 24 24" fill="none" xmlns="http://www.w3.org/2000/svg">
<g clip-path="url(#clip0_88_9575)">
<mask id="mask0_88_9575" style="mask-type:luminance" maskUnits="userSpaceOnUse" x="0" y="0" width="24" height="24">
<path d="M24 0H0V24H24V0Z" fill="white"/>
</mask>
<g mask="url(#mask0_88_9575)">
<path d="M21.8923 10.2512L20.323 7.5189C20.0697 7.0763 19.6866 6.72222 19.2253 6.50462L15.7323 4.84992C15.0487 4.52468 14.2805 4.42208 13.5357 4.55658L3.90989 6.27896C3.7944 6.29964 3.68987 6.36027 3.61458 6.45026C3.53928 6.54023 3.49803 6.65382 3.49805 6.77115V10.5002C3.49805 10.6328 3.55073 10.7599 3.64448 10.8537C3.73824 10.9475 3.86541 11.0001 3.99801 11.0002H21.459C21.5466 11.0001 21.6327 10.9771 21.7086 10.9333C21.7846 10.8895 21.8476 10.8265 21.8916 10.7506C21.9355 10.6747 21.9586 10.5887 21.9589 10.501C21.9591 10.4133 21.936 10.3272 21.8923 10.2512Z" fill="url(#paint0_linear_88_9575)"/>
<path d="M23.002 9.5H8.00194C7.44966 9.5 7.00195 9.94772 7.00195 10.5V18.4999C7.00195 19.0522 7.44966 19.5 8.00194 19.5H23.002C23.5542 19.5 24.0019 19.0522 24.0019 18.4999V10.5C24.0019 9.94772 23.5542 9.5 23.002 9.5Z" fill="url(#paint1_linear_88_9575)"/>
<path d="M20.9083 17.5H19.999C19.9329 17.5007 19.8673 17.4881 19.8061 17.4634C19.7449 17.4385 19.6893 17.4017 19.6423 17.3552C19.5954 17.3089 19.558 17.2535 19.5327 17.1925C19.5072 17.1316 19.4941 17.066 19.4941 17C19.4941 16.934 19.5072 16.8685 19.5327 16.8076C19.558 16.7465 19.5954 16.6912 19.6423 16.6448C19.6893 16.5983 19.7449 16.5616 19.8061 16.5367C19.8673 16.5119 19.9329 16.4993 19.999 16.5001H20.4888C20.5672 16.2647 20.6994 16.051 20.8747 15.8756C21.0499 15.7003 21.2637 15.5681 21.499 15.4895V13.5105C21.2637 13.432 21.0499 13.2998 20.8747 13.1244C20.6994 12.9491 20.5672 12.7353 20.4888 12.5H19.9992C19.8666 12.5 19.7394 12.4474 19.6456 12.3536C19.5519 12.2598 19.4991 12.1326 19.4991 12C19.4991 11.8674 19.5519 11.7402 19.6456 11.6464C19.7394 11.5527 19.8666 11.5 19.9992 11.5H20.9085C21.0411 11.5001 21.1683 11.5528 21.2619 11.6465C21.3556 11.7403 21.4083 11.8674 21.4083 12C21.4084 12.1566 21.4708 12.3068 21.5815 12.4176C21.6922 12.5284 21.8424 12.5907 21.999 12.591C22.0647 12.591 22.1296 12.6039 22.1904 12.629C22.251 12.6541 22.3062 12.6909 22.3527 12.7373C22.399 12.7838 22.4359 12.8389 22.4611 12.8996C22.4862 12.9602 22.4991 13.0253 22.4991 13.0909V15.9091C22.4991 16.0417 22.4464 16.1689 22.3527 16.2626C22.2589 16.3564 22.1317 16.409 21.9991 16.409C21.8425 16.4093 21.6924 16.4717 21.5817 16.5824C21.471 16.6933 21.4087 16.8434 21.4086 17C21.4084 17.0657 21.3955 17.1307 21.3705 17.1914C21.3453 17.252 21.3084 17.3072 21.262 17.3536C21.2155 17.4001 21.1605 17.4368 21.0997 17.462C21.039 17.4871 20.974 17.5 20.9083 17.5Z" fill="url(#paint2_linear_88_9575)"/>
<path d="M11.002 17.5H10.0926C9.96 17.5 9.83283 17.4473 9.73906 17.3536C9.64528 17.2598 9.5926 17.1326 9.59259 17C9.59242 16.8434 9.53014 16.6933 9.41943 16.5824C9.30871 16.4717 9.15859 16.4093 9.00196 16.409C8.86935 16.409 8.74218 16.3564 8.6484 16.2626C8.55463 16.1689 8.50195 16.0417 8.50195 15.9091V13.0909C8.50197 12.9583 8.55465 12.8312 8.64841 12.7374C8.74219 12.6436 8.86936 12.591 9.00196 12.591C9.15859 12.5907 9.30871 12.5284 9.41943 12.4176C9.53014 12.3068 9.59242 12.1566 9.59259 12C9.59259 11.8674 9.64527 11.7402 9.73905 11.6464C9.83281 11.5527 9.96 11.5 10.0926 11.5H11.002C11.1346 11.5 11.2618 11.5527 11.3556 11.6464C11.4493 11.7402 11.502 11.8674 11.502 12C11.502 12.1326 11.4493 12.2598 11.3556 12.3536C11.2618 12.4474 11.1346 12.5 11.002 12.5H10.5122C10.4338 12.7353 10.3016 12.9491 10.1263 13.1244C9.95097 13.2998 9.73722 13.432 9.50199 13.5105V15.4895C9.73722 15.5681 9.95097 15.7003 10.1263 15.8756C10.3016 16.051 10.4338 16.2647 10.5122 16.5001H11.002C11.1337 16.5013 11.2597 16.5545 11.3524 16.6481C11.4451 16.7419 11.4972 16.8683 11.4972 17C11.4972 17.1319 11.4451 17.2582 11.3524 17.3519C11.2597 17.4455 11.1337 17.4988 11.002 17.5Z" fill="#00B157"/>
<path d="M10.5122 12.5H11.002C11.1108 12.4998 11.2165 12.464 11.303 12.398C11.3895 12.3321 11.4521 12.2397 11.4812 12.1349L10.402 11.5H10.0926C10.0269 11.5 9.96192 11.5129 9.90126 11.5381C9.8406 11.5632 9.78547 11.6 9.73905 11.6464C9.69261 11.6929 9.65578 11.748 9.63066 11.8087C9.60552 11.8693 9.59259 11.9344 9.59259 12C9.59242 12.1566 9.53014 12.3068 9.41943 12.4176C9.30871 12.5284 9.15859 12.5907 9.00196 12.591C8.86936 12.591 8.74219 12.6436 8.64841 12.7374C8.55465 12.8312 8.50197 12.9583 8.50195 13.0909V15.9091C8.50195 15.9748 8.51488 16.0397 8.54001 16.1005C8.56515 16.1611 8.60197 16.2163 8.6484 16.2626C8.69484 16.3091 8.74995 16.3459 8.81062 16.3711C8.87128 16.3961 8.93631 16.409 9.00196 16.409C9.15859 16.4093 9.30871 16.4717 9.41943 16.5824C9.53014 16.6933 9.59242 16.8434 9.59259 17C9.5926 17.1326 9.64528 17.2598 9.73906 17.3536C9.83283 17.4473 9.96 17.5 10.0926 17.5H11.002C11.1337 17.4988 11.2597 17.4455 11.3524 17.3519C11.4451 17.2582 11.4972 17.1319 11.4972 17C11.4972 16.8683 11.4451 16.7419 11.3524 16.6481C11.2597 16.5545 11.1337 16.5013 11.002 16.5001H10.5122C10.4338 16.2647 10.3016 16.051 10.1263 15.8756C9.95097 15.7003 9.73722 15.5681 9.50199 15.4895V13.5105C9.73722 13.432 9.95097 13.2998 10.1263 13.1244C10.3016 12.9491 10.4338 12.7353 10.5122 12.5Z" fill="url(#paint3_linear_88_9575)"/>
<path d="M15.498 17.5C17.1549 17.5 18.498 16.1569 18.498 14.5C18.498 12.8431 17.1549 11.5 15.498 11.5C13.8412 11.5 12.498 12.8431 12.498 14.5C12.498 16.1569 13.8412 17.5 15.498 17.5Z" fill="url(#paint4_linear_88_9575)"/>
<path d="M16.0986 12.1378L10.8662 11.2299C10.58 11.1802 10.3143 11.0484 10.1015 10.8507C9.88872 10.6529 9.73794 10.3976 9.66746 10.1157L9.23316 8.37866C9.2061 8.27048 9.14366 8.17446 9.05576 8.10585C8.96787 8.03724 8.85956 7.99999 8.74805 8H3.99801C3.86543 8.00002 3.73826 8.0527 3.64451 8.14646C3.55074 8.24021 3.49806 8.36738 3.49805 8.49997V12.5198C3.49803 12.6153 3.52539 12.7088 3.5769 12.7893C3.62841 12.8697 3.7019 12.9338 3.78867 12.9737L6.77462 14.3518C7.38843 14.6357 8.0568 14.7823 8.73309 14.7813H15.8709C16.2042 14.7812 16.5254 14.6561 16.7709 14.4307C17.0166 14.2053 17.1687 13.896 17.1972 13.5639C17.2259 13.2318 17.129 12.901 16.9256 12.6369C16.7222 12.3729 16.427 12.1949 16.0986 12.1378Z" fill="url(#paint5_linear_88_9575)"/>
<path d="M3 5.0791H1.5C0.671572 5.0791 0 5.75067 0 6.5791V13.0967C0 13.9251 0.671572 14.5967 1.5 14.5967H3C3.82842 14.5967 4.5 13.9251 4.5 13.0967V6.5791C4.5 5.75067 3.82842 5.0791 3 5.0791Z" fill="url(#paint6_linear_88_9575)"/>
</g>
</g>
<defs>
<linearGradient id="paint0_linear_88_9575" x1="12.7284" y1="4.62066" x2="12.7284" y2="14.6618" gradientUnits="userSpaceOnUse">
<stop stop-color="#F1D2BD"/>
<stop offset="1" stop-color="#FEB592"/>
</linearGradient>
<linearGradient id="paint1_linear_88_9575" x1="7.34301" y1="9.53169" x2="23.5249" y2="19.3855" gradientUnits="userSpaceOnUse">
<stop stop-color="#34CA82"/>
<stop offset="1" stop-color="#37A477"/>
</linearGradient>
<linearGradient id="paint2_linear_88_9575" x1="9.17551" y1="7.93168" x2="25.0861" y2="17.1979" gradientUnits="userSpaceOnUse">
<stop stop-color="#37AA79"/>
<stop offset="1" stop-color="#398A70"/>
</linearGradient>
<linearGradient id="paint3_linear_88_9575" x1="9.17832" y1="7.93168" x2="25.089" y2="17.1979" gradientUnits="userSpaceOnUse">
<stop stop-color="#37AA79"/>
<stop offset="1" stop-color="#398A70"/>
</linearGradient>
<linearGradient id="paint4_linear_88_9575" x1="7.91949" y1="10.0864" x2="23.8302" y2="19.3526" gradientUnits="userSpaceOnUse">
<stop stop-color="#37AA79"/>
<stop offset="1" stop-color="#398A70"/>
</linearGradient>
<linearGradient id="paint5_linear_88_9575" x1="12.7284" y1="4.62059" x2="12.7284" y2="14.6617" gradientUnits="userSpaceOnUse">
<stop stop-color="#F1D2BD"/>
<stop offset="1" stop-color="#FEB592"/>
</linearGradient>
<linearGradient id="paint6_linear_88_9575" x1="2.25" y1="4.80085" x2="2.25" y2="14.6612" gradientUnits="userSpaceOnUse">
<stop stop-color="#34CA82"/>
<stop offset="1" stop-color="#37A477"/>
</linearGradient>
<clipPath id="clip0_88_9575">
<rect width="24" height="24" fill="white"/>
</clipPath>
</defs>
</svg>
