<svg width="24" height="24" viewBox="0 0 24 24" fill="none" xmlns="http://www.w3.org/2000/svg">
<g opacity="0.6">
<path d="M15.81 20.18C15.55 20.18 15.28 20.17 14.99 20.14C14.47 20.1 13.88 20 13.27 19.85L11.59 19.45C6.98001 18.36 5.47001 15.92 6.55001 11.32L7.53001 7.13001C7.75001 6.18002 8.01001 5.41002 8.33001 4.77002C10.05 1.22002 13.34 1.54001 15.68 2.09001L17.35 2.48001C19.69 3.03001 21.17 3.90001 22 5.23002C22.82 6.56002 22.95 8.27001 22.4 10.61L21.42 14.79C20.56 18.45 18.77 20.18 15.81 20.18ZM13.12 3.25001C11.45 3.25001 10.39 3.94002 9.68001 5.42002C9.42001 5.96002 9.19001 6.63001 8.99001 7.47001L8.01001 11.66C7.12001 15.44 8.15001 17.09 11.93 17.99L13.61 18.39C14.15 18.52 14.66 18.6 15.12 18.64C17.84 18.91 19.19 17.72 19.95 14.45L20.93 10.27C21.38 8.34002 21.32 6.99002 20.72 6.02001C20.12 5.05001 18.94 4.39002 17 3.94002L15.33 3.55001C14.5 3.35001 13.76 3.25001 13.12 3.25001Z" fill="#8D8D8D" stroke="white" stroke-width="0.2"/>
<path d="M8.32999 22.2502C5.75999 22.2502 4.11999 20.7102 3.06999 17.4602L1.78999 13.5102C0.369991 9.11017 1.63999 6.63017 6.01999 5.21017L7.59999 4.70017C8.11999 4.54017 8.50999 4.43017 8.85999 4.37017C9.14999 4.31017 9.42999 4.42017 9.59999 4.65017C9.76999 4.88017 9.79999 5.18017 9.67999 5.44017C9.41999 5.97017 9.18999 6.64017 8.99999 7.48017L8.01999 11.6702C7.12999 15.4502 8.15999 17.1002 11.94 18.0002L13.62 18.4002C14.16 18.5302 14.67 18.6102 15.13 18.6502C15.45 18.6802 15.71 18.9002 15.8 19.2102C15.88 19.5202 15.76 19.8402 15.5 20.0202C14.84 20.4702 14.01 20.8502 12.96 21.1902L11.38 21.7102C10.23 22.0702 9.22999 22.2502 8.32999 22.2502ZM7.77999 6.22017L6.48999 6.64017C2.91999 7.79017 2.06999 9.47017 3.21999 13.0502L4.49999 17.0002C5.65999 20.5702 7.33999 21.4302 10.91 20.2802L12.49 19.7602C12.55 19.7402 12.6 19.7202 12.66 19.7002L11.6 19.4502C6.98999 18.3602 5.47999 15.9202 6.55999 11.3202L7.53999 7.13017C7.60999 6.81017 7.68999 6.50017 7.77999 6.22017Z" fill="#8D8D8D" stroke="white" stroke-width="0.2"/>
<path d="M17.49 10.5098C17.43 10.5098 17.37 10.4998 17.3 10.4898L12.45 9.25978C12.05 9.15978 11.81 8.74978 11.91 8.34978C12.01 7.94978 12.42 7.70978 12.82 7.80978L17.67 9.03978C18.07 9.13978 18.31 9.54978 18.21 9.94978C18.13 10.2798 17.82 10.5098 17.49 10.5098Z" fill="#8D8D8D" stroke="white" stroke-width="0.2"/>
<path d="M14.56 13.8899C14.5 13.8899 14.44 13.8799 14.37 13.8699L11.46 13.1299C11.06 13.0299 10.82 12.6199 10.92 12.2199C11.02 11.8199 11.43 11.5799 11.83 11.6799L14.74 12.4199C15.14 12.5199 15.38 12.9299 15.28 13.3299C15.2 13.6699 14.9 13.8899 14.56 13.8899Z" fill="#8D8D8D" stroke="white" stroke-width="0.2"/>
</g>
</svg>
