<svg width="92" height="89" viewBox="0 0 92 89" fill="none" xmlns="http://www.w3.org/2000/svg">
<rect width="88" height="88" rx="44" fill="#F4F4F4"/>
<path d="M43.4561 22.6492C48.5823 22.6492 52.7908 26.6975 53.0488 31.7615L53.0615 32.2546C53.0404 37.4659 48.9665 41.6734 43.8135 41.8396H43.708C43.5371 41.8209 43.3648 41.8202 43.2051 41.8347C37.845 41.6272 33.8506 37.4225 33.8506 32.2546C33.8506 26.963 38.1644 22.6492 43.4561 22.6492ZM43.4561 23.1013C38.4177 23.1013 34.3027 27.2163 34.3027 32.2546C34.3028 37.2116 38.1783 41.2118 43.1123 41.3855L43.2715 41.3914L43.3652 41.3718C43.3815 41.3713 43.4046 41.3709 43.4346 41.3708C43.5205 41.3708 43.629 41.3746 43.7324 41.3826L43.8154 41.3884L43.8984 41.3855C48.7682 41.1619 52.5846 37.1603 52.6094 32.2615V32.2546C52.6094 27.2163 48.4944 23.1014 43.4561 23.1013Z" fill="#B0B0B0" stroke="#B0B0B0" stroke-width="2.71605"/>
<path d="M43.8151 66.2866C39.6746 66.2866 35.513 65.2303 32.3654 63.1178C29.4291 61.1743 27.8236 58.5126 27.8236 55.6185C27.8236 52.7244 29.4291 50.0416 32.3654 48.077C38.7029 43.8731 48.9696 43.8731 55.2648 48.077C58.18 50.0204 59.8066 52.6822 59.8066 55.5763C59.8066 58.4704 58.2011 61.1532 55.2648 63.1178C52.096 65.2303 47.9556 66.2866 43.8151 66.2866ZM34.1188 50.7387C32.0908 52.0907 30.9923 53.8229 30.9923 55.6396C30.9923 57.4353 32.1119 59.1675 34.1188 60.4983C39.3789 64.0262 48.2513 64.0262 53.5114 60.4983C55.5394 59.1464 56.6379 57.4141 56.6379 55.5974C56.6379 53.8018 55.5183 52.0695 53.5114 50.7387C48.2513 47.232 39.3789 47.232 34.1188 50.7387Z" fill="#B0B0B0"/>
<path d="M69.9137 60.1667H81.0865C83.4137 60.1667 85.2111 60.8583 86.4244 62.073C87.6376 63.2877 88.3263 65.085 88.3199 67.4119V78.5867C88.3199 80.9139 87.6278 82.7114 86.4127 83.9265C85.1976 85.1415 83.4 85.8337 81.0729 85.8337H69.9137C67.5867 85.8337 65.7889 85.1419 64.5739 83.9255C63.3587 82.7089 62.6666 80.9073 62.6666 78.573V67.4138C62.6666 65.0866 63.3587 63.2891 64.5739 62.074C65.789 60.8588 67.5865 60.1667 69.9137 60.1667Z" fill="#007760" stroke="white"/>
<path d="M75.5 64.5C75.7705 64.5 76 64.7295 76 65V72.5H83.5C83.7705 72.5 84 72.7295 84 73C84 73.2705 83.7705 73.5 83.5 73.5H76V81C76 81.2705 75.7705 81.5 75.5 81.5C75.2295 81.5 75 81.2705 75 81V73.5H67.5C67.2295 73.5 67 73.2705 67 73C67 72.7295 67.2295 72.5 67.5 72.5H75V65C75 64.7295 75.2295 64.5 75.5 64.5Z" fill="#007760" stroke="white"/>
</svg>
